<?xml version="1.0" encoding="UTF-8"?>
<svg xmlns="http://www.w3.org/2000/svg" xmlns:xlink="http://www.w3.org/1999/xlink" width="30px" height="30px" viewBox="0 0 30 30" version="1.1">
<g id="surface1">
<path style=" stroke:none;fill-rule:nonzero;fill:rgb(13.333334%,42.745098%,70.588237%);fill-opacity:1;" d="M 28.09375 10.113281 C 28.097656 9.945312 28.089844 9.777344 28.070312 9.609375 C 27.960938 8.441406 27.386719 7.363281 26.480469 6.617188 C 26.246094 6.40625 25.988281 6.21875 25.710938 6.0625 L 21.867188 3.84375 L 20.09375 2.804688 C 20.046875 2.777344 20 2.753906 19.945312 2.734375 L 15.4375 0.132812 C 15.167969 -0.0273438 14.832031 -0.0273438 14.5625 0.132812 L 2.34375 7.1875 C 2.070312 7.34375 1.90625 7.636719 1.90625 7.949219 L 1.90625 19.347656 C 1.90625 21.335938 2.96875 23.171875 4.6875 24.167969 L 14.5625 29.867188 C 14.832031 30.027344 15.167969 30.027344 15.4375 29.867188 L 24.882812 24.417969 C 25.035156 24.335938 25.1875 24.253906 25.339844 24.167969 C 25.390625 24.136719 25.441406 24.101562 25.484375 24.0625 C 27.105469 23.042969 28.089844 21.261719 28.09375 19.34375 L 28.09375 10.195312 C 28.09375 10.167969 28.09375 10.140625 28.09375 10.113281 Z M 26.335938 15.617188 C 23.492188 17.957031 19.492188 18.28125 16.308594 16.433594 L 12.199219 14.046875 L 12.199219 11.996094 L 16.492188 14.457031 C 19.628906 16.257812 23.550781 15.921875 26.339844 13.621094 L 26.339844 15.617188 Z M 15 28.09375 L 5.566406 22.648438 C 4.390625 21.964844 3.664062 20.707031 3.664062 19.347656 L 3.664062 8.453125 L 15 1.90625 L 20.984375 5.359375 L 24.992188 7.714844 C 25.117188 7.789062 25.230469 7.867188 25.34375 7.957031 C 25.953125 8.507812 26.3125 9.285156 26.335938 10.109375 C 26.328125 10.863281 26 11.578125 25.433594 12.078125 C 23.210938 14.078125 19.953125 14.421875 17.363281 12.933594 L 11.757812 9.71875 C 11.335938 9.480469 10.796875 9.625 10.558594 10.046875 C 10.484375 10.179688 10.441406 10.328125 10.441406 10.484375 L 10.441406 20.648438 C 10.441406 20.960938 10.609375 21.25 10.882812 21.410156 L 15.652344 24.167969 C 16.867188 24.871094 18.21875 25.296875 19.617188 25.425781 Z M 24.433594 22.648438 L 24.046875 22.867188 C 22.945312 23.421875 21.730469 23.707031 20.496094 23.707031 C 19.105469 23.707031 17.734375 23.339844 16.527344 22.644531 L 12.195312 20.140625 L 12.195312 16.082031 L 15.425781 17.953125 C 17.03125 18.890625 18.859375 19.382812 20.71875 19.382812 C 21.089844 19.382812 21.453125 19.363281 21.820312 19.328125 C 23.425781 19.164062 24.96875 18.636719 26.335938 17.78125 L 26.335938 19.347656 C 26.335938 20.707031 25.609375 21.964844 24.433594 22.648438 Z M 24.433594 22.648438 "/>
</g>
</svg>
